<?xml version="1.0" encoding="utf-8"?>
<!-- Generator: Adobe Illustrator 16.0.4, SVG Export Plug-In . SVG Version: 6.00 Build 0)  -->
<!DOCTYPE svg PUBLIC "-//W3C//DTD SVG 1.1//EN" "http://www.w3.org/Graphics/SVG/1.1/DTD/svg11.dtd">
<svg version="1.1" id="Layer_1" xmlns="http://www.w3.org/2000/svg" xmlns:xlink="http://www.w3.org/1999/xlink" x="0px" y="0px"
	 width="374px" height="63px" viewBox="0 0 374 63" enable-background="new 0 0 374 63" xml:space="preserve">
<g>
	<text transform="matrix(1 0 0 1 70.0757 50.2646)" font-family="'Fontin-Italic'" font-size="60">Mark Tai</text>
	<g opacity="0.3">
		<g>
			<path fill="#5D5D5D" d="M83.392,40.17c0.432-8.458,1.316-16.765,3.538-24.958c-3.99,0-7.98,0-11.971,0
				c2.392,8.251,1.131,27.963,13.811,28.134c6.578,0.089,11.998-5.592,15.722-10.41c3.329-4.307,7.151-12.247,13.436-11.955
				c-2.069-2.069-4.138-4.138-6.207-6.207c-0.233,6.102-3.029,11.866-4.886,17.602c-1.973,6.092-2.542,12.333-1.028,18.58
				c0.761,3.139,4.505,5.408,7.635,4.335c6.498-2.228,11.287-6.718,15.961-11.583c4.33-4.508,8.627-9.701,15.414-9.136
				c0-4.138,0-8.276,0-12.414c-10.322-0.377-19.442,3.344-20.62,14.634c-0.508,4.866,5.591,7.492,9.34,5.359
				c4.08-2.32,7.731-5.686,12.381-6.755c-2.545-1.445-5.09-2.891-7.635-4.335c0.794,3.96,0.802,7.824,3.462,11.11
				c2.886,3.566,8.093,4.608,12.362,3.355c8.36-2.453,13.079-11.972,18.378-18.099c-3.532-1.463-7.064-2.926-10.596-4.389
				c0.554,6.791-0.54,13.541-0.461,20.334c0.074,6.414,8.197,8.155,11.567,3.133c4.276-6.374,11.307-9.387,16.485-14.862
				c5.665-5.988,8.771-14.08,11.329-21.765c-3.99-1.1-7.98-2.2-11.971-3.3c-3.419,13.277-2.42,27.274-6.414,40.411
				c-2.336,7.687,9.596,10.913,11.971,3.301c1.836-5.884,8.337-12.521,14.528-13.523c-2.014-3.458-4.026-6.917-6.039-10.375
				c-2.67,3.093-7.093,4.031-10.584,5.969c-4.012,2.227-4.061,8.505,0,10.719c7.561,4.123,19.413,5.923,26.768,0.433
				c6.335-4.729,0.157-15.514-6.266-10.719c-3.854,2.876-10.245,1.743-14.236-0.433c0,3.573,0,7.146,0,10.719
				c4.557-2.529,9.571-3.826,13.096-7.91c4.249-4.922,0.107-11.369-6.039-10.374c-10.366,1.678-20.183,12.527-23.198,22.193
				c3.99,1.101,7.98,2.2,11.971,3.301c4.001-13.163,2.996-27.139,6.414-40.412c2.01-7.805-9.458-10.848-11.971-3.3
				c-2.302,6.915-5.154,14.688-11.243,19.195c-5.9,4.368-11.17,8.281-15.32,14.465c3.856,1.044,7.711,2.089,11.567,3.133
				c-0.079-6.793,1.015-13.543,0.461-20.334c-0.4-4.907-6.739-8.849-10.596-4.389c-3.312,3.83-6.094,8.067-9.511,11.815
				c-0.823,0.903-1.723,1.72-2.639,2.525c-1.164,1.021-1.572,0.224-0.485,1.081c0.933,0.735,0.025-1.022-0.073-1.606
				c-0.265-1.568-0.431-3.141-0.744-4.703c-0.686-3.418-4.523-5.051-7.635-4.335c-5.828,1.34-10.263,5.114-15.347,8.006
				c3.113,1.787,6.227,3.574,9.34,5.36c0.29-2.777,5.698-2.312,8.206-2.22c8.086,0.295,7.864-11.758,0-12.414
				c-7.553-0.63-13.791,2.954-19.247,7.822c-4.864,4.34-9.028,11.146-15.427,13.34c2.545,1.445,5.09,2.891,7.635,4.335
				c-1.379-5.691,0.671-11.129,2.55-16.466c1.897-5.391,3.588-10.655,3.808-16.415c0.134-3.498-2.929-6.055-6.207-6.207
				c-13.679-0.634-18.089,12.67-26.554,20.462c-0.693,0.638-1.444,1.199-2.229,1.713c-1.355,0.885,0.795,0.075,1.98,1.045
				c0.643,0.526-0.411-0.773-0.476-0.952c-0.412-1.13-0.661-2.324-0.918-3.497c-1.122-5.109-1.34-10.388-2.801-15.427
				c-1.697-5.856-10.344-5.999-11.971,0c-2.502,9.225-3.496,18.734-3.981,28.258C70.569,48.175,82.985,48.135,83.392,40.17
				L83.392,40.17z"/>
		</g>
	</g>
	<g opacity="0.3">
		<g>
			<path fill="#5D5D5D" d="M225.384,18.297c12.274,0.129,24.785,2.628,36.845-0.75c4.929-1.38,6.454-8.903,1.487-11.376
				c-18.436-9.18-33.46,20.844-38.214,34.315c-1.621,4.594,3.332,8.817,7.656,7.656c6.97-1.871,12.795-5.959,18.61-10.065
				c5.565-3.931,11.412-8.194,18.495-8.174c-1.467-3.542-2.934-7.083-4.401-10.625c-2.895,2.449-7.29,3.343-10.611,5.098
				c-4.593,2.428-8.003,6.739-8.839,11.891c-0.423,2.608,0.183,5.748,2.86,7.028c9.058,4.332,13.728-2.423,21.073-6.33
				c-3.048-1.239-6.096-2.479-9.144-3.72c2.511,6.25,0.482,13.085,4.708,18.895c2.145,2.949,5.189,3.771,8.516,2.232
				c10.033-4.643,17.145-14.041,22.632-23.332c-3.792-0.496-7.584-0.991-11.376-1.487c0.856,5.312-0.194,11.582,2.897,16.31
				c4.847,7.41,12.939,2.562,17.706-1.959c5.833-5.535-2.983-14.323-8.803-8.803c-0.612,0.605-1.244,1.189-1.895,1.754
				c-2.547,1.947,0.719-1.894,3.427,2.246c0.235,0.359-0.249-1.722-0.304-2.3c-0.328-3.535-0.459-7.045-1.025-10.558
				c-0.896-5.559-8.857-5.751-11.376-1.487c-4.497,7.613-9.941,15.061-18.167,18.867c2.839,0.744,5.678,1.488,8.516,2.232
				c-3.217-4.423-1.429-10.883-3.452-15.92c-1.522-3.789-5.298-5.765-9.144-3.72c-1.926,1.024-3.591,2.367-5.307,3.705
				c-0.608,0.511-1.241,0.99-1.897,1.438c-0.549,0.398-2.124,0.793-1.303,1.187c0.953,2.343,1.906,4.686,2.86,7.028
				c0.575-3.55,2.892-4.456,6.002-5.852c3.706-1.664,7.108-2.988,10.247-5.644c4.29-3.63,0.692-10.611-4.401-10.625
				c-7.95-0.022-14.89,3.243-21.403,7.542c-6.098,4.023-11.819,9.212-19.011,11.143c2.552,2.553,5.104,5.104,7.656,7.656
				c2.067-5.857,5.378-11.517,8.843-16.726c1.95-2.933,4.193-5.608,6.783-7.997c1.466-1.352,3.616-2.493,4.301-2.152
				c0.496-3.792,0.991-7.584,1.487-11.376c-10.816,3.029-22.501,0.421-33.536,0.305C217.354,5.765,217.361,18.213,225.384,18.297
				L225.384,18.297z"/>
		</g>
	</g>
</g>
</svg>
